<mxfile host="app.diagrams.net" modified="2024-03-12T11:44:42.814Z" agent="Mozilla/5.0 (Windows NT 10.0; Win64; x64) AppleWebKit/537.36 (KHTML, like Gecko) Chrome/122.0.0.0 Safari/537.36" etag="rCABt9XbfV6l1gJGk0Y5" version="24.0.4" type="github">
  <diagram name="Страница — 1" id="U_v-0FTLiieDXvyiQLng">
    <mxGraphModel dx="1434" dy="780" grid="1" gridSize="10" guides="1" tooltips="1" connect="1" arrows="1" fold="1" page="1" pageScale="1" pageWidth="827" pageHeight="1169" math="0" shadow="0">
      <root>
        <mxCell id="0" />
        <mxCell id="1" parent="0" />
        <mxCell id="WsHa1TeX6knfXeCC0M8B-9" style="edgeStyle=orthogonalEdgeStyle;rounded=0;orthogonalLoop=1;jettySize=auto;html=1;exitX=1;exitY=0.5;exitDx=0;exitDy=0;entryX=0;entryY=0.5;entryDx=0;entryDy=0;" edge="1" parent="1" source="WsHa1TeX6knfXeCC0M8B-1" target="WsHa1TeX6knfXeCC0M8B-2">
          <mxGeometry relative="1" as="geometry" />
        </mxCell>
        <mxCell id="WsHa1TeX6knfXeCC0M8B-1" value="Web service" style="rounded=1;whiteSpace=wrap;html=1;" vertex="1" parent="1">
          <mxGeometry x="110" y="390" width="150" height="70" as="geometry" />
        </mxCell>
        <mxCell id="WsHa1TeX6knfXeCC0M8B-10" style="edgeStyle=orthogonalEdgeStyle;rounded=0;orthogonalLoop=1;jettySize=auto;html=1;exitX=0.5;exitY=0;exitDx=0;exitDy=0;entryX=0.5;entryY=1;entryDx=0;entryDy=0;" edge="1" parent="1" source="WsHa1TeX6knfXeCC0M8B-2" target="WsHa1TeX6knfXeCC0M8B-3">
          <mxGeometry relative="1" as="geometry" />
        </mxCell>
        <mxCell id="WsHa1TeX6knfXeCC0M8B-2" value="Check In Service" style="rounded=1;whiteSpace=wrap;html=1;" vertex="1" parent="1">
          <mxGeometry x="340" y="395" width="120" height="60" as="geometry" />
        </mxCell>
        <mxCell id="WsHa1TeX6knfXeCC0M8B-14" style="edgeStyle=orthogonalEdgeStyle;rounded=0;orthogonalLoop=1;jettySize=auto;html=1;exitX=0;exitY=0.5;exitDx=0;exitDy=0;entryX=0.5;entryY=0;entryDx=0;entryDy=0;" edge="1" parent="1" source="WsHa1TeX6knfXeCC0M8B-3" target="WsHa1TeX6knfXeCC0M8B-1">
          <mxGeometry relative="1" as="geometry" />
        </mxCell>
        <mxCell id="WsHa1TeX6knfXeCC0M8B-3" value="Managment Service" style="rounded=1;whiteSpace=wrap;html=1;" vertex="1" parent="1">
          <mxGeometry x="340" y="260" width="120" height="60" as="geometry" />
        </mxCell>
        <mxCell id="WsHa1TeX6knfXeCC0M8B-4" value="FitnesClub Service" style="rounded=1;whiteSpace=wrap;html=1;" vertex="1" parent="1">
          <mxGeometry x="540" y="200" width="120" height="60" as="geometry" />
        </mxCell>
        <mxCell id="WsHa1TeX6knfXeCC0M8B-7" value="Training Service" style="rounded=1;whiteSpace=wrap;html=1;" vertex="1" parent="1">
          <mxGeometry x="540" y="320" width="120" height="60" as="geometry" />
        </mxCell>
        <mxCell id="WsHa1TeX6knfXeCC0M8B-8" value="Sale Service" style="rounded=1;whiteSpace=wrap;html=1;" vertex="1" parent="1">
          <mxGeometry x="340" y="130" width="120" height="60" as="geometry" />
        </mxCell>
        <mxCell id="WsHa1TeX6knfXeCC0M8B-11" value="" style="endArrow=classic;startArrow=classic;html=1;rounded=0;entryX=0;entryY=0.5;entryDx=0;entryDy=0;exitX=1.008;exitY=0.883;exitDx=0;exitDy=0;exitPerimeter=0;" edge="1" parent="1" source="WsHa1TeX6knfXeCC0M8B-3" target="WsHa1TeX6knfXeCC0M8B-7">
          <mxGeometry width="50" height="50" relative="1" as="geometry">
            <mxPoint x="440" y="380" as="sourcePoint" />
            <mxPoint x="530" y="300" as="targetPoint" />
          </mxGeometry>
        </mxCell>
        <mxCell id="WsHa1TeX6knfXeCC0M8B-12" value="" style="endArrow=classic;startArrow=classic;html=1;rounded=0;entryX=-0.017;entryY=0.867;entryDx=0;entryDy=0;exitX=1;exitY=0.25;exitDx=0;exitDy=0;entryPerimeter=0;" edge="1" parent="1" source="WsHa1TeX6knfXeCC0M8B-3" target="WsHa1TeX6knfXeCC0M8B-4">
          <mxGeometry width="50" height="50" relative="1" as="geometry">
            <mxPoint x="450" y="223" as="sourcePoint" />
            <mxPoint x="529" y="260" as="targetPoint" />
          </mxGeometry>
        </mxCell>
        <mxCell id="WsHa1TeX6knfXeCC0M8B-13" value="" style="endArrow=classic;startArrow=classic;html=1;rounded=0;exitX=0.5;exitY=0;exitDx=0;exitDy=0;entryX=0.5;entryY=1;entryDx=0;entryDy=0;" edge="1" parent="1" source="WsHa1TeX6knfXeCC0M8B-3" target="WsHa1TeX6knfXeCC0M8B-8">
          <mxGeometry width="50" height="50" relative="1" as="geometry">
            <mxPoint x="394" y="250" as="sourcePoint" />
            <mxPoint x="434" y="190" as="targetPoint" />
          </mxGeometry>
        </mxCell>
        <mxCell id="WsHa1TeX6knfXeCC0M8B-15" value="API" style="rounded=1;whiteSpace=wrap;html=1;" vertex="1" parent="1">
          <mxGeometry x="420" y="440" width="50" height="20" as="geometry" />
        </mxCell>
        <mxCell id="WsHa1TeX6knfXeCC0M8B-16" value="API" style="rounded=1;whiteSpace=wrap;html=1;" vertex="1" parent="1">
          <mxGeometry x="420" y="180" width="50" height="20" as="geometry" />
        </mxCell>
        <mxCell id="WsHa1TeX6knfXeCC0M8B-17" value="API" style="rounded=1;whiteSpace=wrap;html=1;" vertex="1" parent="1">
          <mxGeometry x="630" y="250" width="50" height="20" as="geometry" />
        </mxCell>
        <mxCell id="WsHa1TeX6knfXeCC0M8B-18" value="API" style="rounded=1;whiteSpace=wrap;html=1;" vertex="1" parent="1">
          <mxGeometry x="630" y="370" width="50" height="20" as="geometry" />
        </mxCell>
      </root>
    </mxGraphModel>
  </diagram>
</mxfile>
